<svg id="Layer_1" data-name="Layer 1" xmlns="http://www.w3.org/2000/svg" viewBox="0 0 533.58 533.62"><path d="M199.2,215.39a39.46,39.46,0,0,0-22,4.22l22.3,56.95Z" transform="translate(-37.57 -13.25)"/><path d="M418.77,173.44,430.52,151a51.26,51.26,0,0,0-32.09-10.16l-7,53.55Z" transform="translate(-37.57 -13.25)"/><polygon points="62.27 413.32 461.98 108.02 471.33 120.19 71.63 425.5 62.27 413.32"/><path d="M448.2,55.27A266.8,266.8,0,1,0,565,222.78,266.87,266.87,0,0,0,448.2,55.27ZM58.72,333.93A251.62,251.62,0,0,1,499.55,121.26L99.84,426.57a251,251,0,0,1-41.13-92.64Zm457.49,81.7a249.87,249.87,0,0,1-157.92,110,252.16,252.16,0,0,1-249.1-86.91L508.9,133.44a252,252,0,0,1,7.34,282.19Z" transform="translate(-37.57 -13.25)"/><path d="M141.4,386.77l95.72-73.43q-1-23.4,7.43-50a232.63,232.63,0,0,1,11-27.92c-14.49-18.05-30-30.4-44.71-35.43l.49,107.87A5.85,5.85,0,0,1,200,310L160.68,209.54c-30.34,26-43.84,94-35,140C128.51,364.47,133.79,376.92,141.4,386.77Z" transform="translate(-37.57 -13.25)"/><path d="M252.12,363.39h0a100.08,100.08,0,0,1-8.57-17.57l-78.51,60c16.42,7.8,37,9.61,60.16,5.16,20-3.78,36.75-11.34,48.89-22A109.2,109.2,0,0,1,252.12,363.39Z" transform="translate(-37.57 -13.25)"/><path d="M378.29,204.58l11.36-86.74c-44.54,8.94-95.23,64.35-121.87,119.16a5.86,5.86,0,0,1-.38.8,220.54,220.54,0,0,0-11.69,29.08,141.76,141.76,0,0,0-6.87,37Z" transform="translate(-37.57 -13.25)"/><path d="M440.77,156.66l16.09-12.34a76.65,76.65,0,0,0-5.91-7.08h0Z" transform="translate(-37.57 -13.25)"/><path d="M407.42,220.27,381.1,270.45a5.84,5.84,0,0,1-11-3.47l2.65-20.25L253.24,338a88.51,88.51,0,0,0,8.85,19.23c13.73,22.38,37.86,39.56,69.77,49.66s61.54,9.94,85.65-.47c26.89-11.61,46.15-35.25,57.22-70.25,15.39-48.6,14.88-117.9-3.34-164.79Z" transform="translate(-37.57 -13.25)"/></svg>