<?xml version="1.0" encoding="utf-8"?>
<!-- Generator: Adobe Illustrator 25.4.8, SVG Export Plug-In . SVG Version: 6.00 Build 0)  -->
<svg version="1.1" id="Layer_1" xmlns="http://www.w3.org/2000/svg" xmlns:xlink="http://www.w3.org/1999/xlink" x="0px" y="0px"
	 viewBox="0 0 602.8 570.9" style="enable-background:new 0 0 602.8 570.9;" xml:space="preserve">
<path d="M199.2,215.4c-3.8-0.4-7.6-0.2-11.3,0.5c-3.7,0.7-7.3,2-10.7,3.7l22.3,57L199.2,215.4z"/>
<path d="M418.8,173.4l11.8-22.4c-4.7-3.4-9.8-6.1-15.2-7.8c-5.4-1.7-11.1-2.5-16.9-2.4l-7,53.6L418.8,173.4z"/>
<polygon points="99.8,426.6 499.5,121.3 508.9,133.4 109.2,438.7 "/>
<path d="M448.2,55.3c-59.6-38.1-131.9-51-201-35.8C178.1,34.6,117.8,76.6,79.7,136.2c-38.1,59.6-51.1,131.9-35.9,201
	c13.1,59.3,45.9,112.4,93.2,150.5c47.3,38.1,106.1,59,166.9,59.1c19.4,0,38.8-2.1,57.7-6.3c69.1-15.2,129.4-57.2,167.5-116.8
	c38.1-59.6,51-131.9,35.9-201C549.8,153.7,507.8,93.4,448.2,55.3L448.2,55.3z M58.7,333.9c-9.5-43.1-7.4-88,5.9-130.1
	C78,161.8,102.2,124,134.8,94.2c32.6-29.8,72.5-50.4,115.6-59.9c17.9-3.9,36.1-5.9,54.4-5.9c37.3,0.1,74.1,8.6,107.7,24.6
	s63.4,39.3,86.9,68.2L99.8,426.6C80,398.8,66,367.3,58.7,333.9L58.7,333.9z M516.2,415.6c-17.7,27.9-40.8,51.9-67.9,70.8
	c-27.1,18.9-57.7,32.2-90,39.2c-17.9,3.9-36.1,5.9-54.4,5.9c-37.3-0.1-74.1-8.6-107.7-24.6s-63.4-39.3-86.9-68.2l399.7-305.3
	c29.3,40.9,45.6,89.7,46.9,140C557.1,323.7,543.3,373.2,516.2,415.6L516.2,415.6z"/>
<g>
	<path d="M141.4,386.8l95.7-73.4c-0.6-15.6,1.8-32.3,7.4-50c2.9-9.2,6.6-18.5,11-27.9c-14.5-18-30-30.4-44.7-35.4l0.5,107.9
		c0,2.8-2,5.2-4.8,5.8c-2.8,0.5-5.5-1-6.5-3.6l-39.3-100.5c-30.3,26-43.8,94-35,140C128.5,364.5,133.8,376.9,141.4,386.8z"/>
	<path d="M252.1,363.4L252.1,363.4c-3.5-5.6-6.3-11.5-8.6-17.6l-78.5,60c16.4,7.8,37,9.6,60.2,5.2c20-3.8,36.7-11.3,48.9-22
		C265.3,381.3,257.9,372.8,252.1,363.4z"/>
</g>
<g>
	<path d="M378.3,204.6l11.4-86.7c-44.5,8.9-95.2,64.4-121.9,119.2c-0.1,0.3-0.2,0.6-0.4,0.8c-4.7,9.8-8.7,19.6-11.7,29.1
		c-4.1,13-6.4,25.3-6.9,37L378.3,204.6z"/>
	<path d="M440.8,156.7l16.1-12.3c-1.9-2.5-3.8-4.9-5.9-7.1l0,0L440.8,156.7z"/>
	<path d="M407.4,220.3l-26.3,50.2c-1.3,2.5-4.2,3.7-6.9,2.9c-2.7-0.9-4.4-3.5-4-6.3l2.7-20.3L253.2,338c2.2,6.7,5.1,13.1,8.8,19.2
		c13.7,22.4,37.9,39.6,69.8,49.7c31.9,10.1,61.5,9.9,85.6-0.5c26.9-11.6,46.1-35.2,57.2-70.2c15.4-48.6,14.9-117.9-3.3-164.8
		L407.4,220.3z"/>
</g>
</svg>
