<?xml version="1.0" encoding="utf-8"?>
<!-- Generator: Adobe Illustrator 25.4.8, SVG Export Plug-In . SVG Version: 6.00 Build 0)  -->
<svg version="1.1" id="Layer_1" xmlns="http://www.w3.org/2000/svg" xmlns:xlink="http://www.w3.org/1999/xlink" x="0px" y="0px"
	 viewBox="0 0 700 700" style="enable-background:new 0 0 700 700;" xml:space="preserve">
<style type="text/css">
	.st0{fill:#FFFFFF;}
</style>
<circle cx="343.5" cy="323.5" r="242.5"/>
<path class="st0" d="M375.9,293.4c0,0,19.4-46.7,53.1-51.1c0,0-5.1,5.5-13,15.6c-23.4,29.9-71.8,99.8-88.6,185.4
	c0,0-24.5-203-134.9-253.5c0,0,97.4,107.7,119.2,331.1h31.3c0,0,6.8-132.2,66.8-208.5c0,0,46.3,4.1,62.7-27.3
	c16.4-31.3,12.3-64,32.7-95.4C353.7,177.1,375.9,293.4,375.9,293.4L375.9,293.4z"/>
</svg>
